<svg width="255" height="72" viewBox="0 0 255 72" fill="none" xmlns="http://www.w3.org/2000/svg">
<rect width="255" height="72" fill="#181D2D" fill-opacity="0.85"/>
<g id="Splash">
<rect x="-68" y="-390" width="393" height="852" rx="55" fill="#0B132B"/>
<rect x="-68" y="-390" width="393" height="852" rx="55" fill="url(#paint0_linear_0_1)" fill-opacity="0.2"/>
<g id="white 1">
<g id="Clip path group">
<mask id="mask0_0_1" style="mask-type:luminance" maskUnits="userSpaceOnUse" x="0" y="0" width="258" height="72">
<g id="clip0_53_56">
<path id="Vector" d="M257.893 0H0V71.6304H257.893V0Z" fill="white"/>
</g>
</mask>
<g mask="url(#mask0_0_1)">
<g id="Group">
<path id="Vector_2" d="M46.7258 28.507C51.0632 28.507 54.5795 24.9965 54.5795 20.666C54.5795 16.3355 51.0632 12.825 46.7258 12.825C42.3884 12.825 38.872 16.3355 38.872 20.666C38.872 24.9965 42.3884 28.507 46.7258 28.507Z" fill="white"/>
<path id="Vector_3" d="M72.5798 28.507C76.9172 28.507 80.4335 24.9965 80.4335 20.666C80.4335 16.3355 76.9172 12.825 72.5798 12.825C68.2423 12.825 64.726 16.3355 64.726 20.666C64.726 24.9965 68.2423 28.507 72.5798 28.507Z" fill="white"/>
<path id="Vector_4" d="M83.7362 41.3326H11.9199C5.3472 41.3326 0 35.9936 0 29.4314V11.9007C0 5.33855 5.3472 0 11.9199 0H83.7362C90.3089 0 95.6567 5.33855 95.6567 11.9007V29.4314C95.6567 35.9936 90.3089 41.3326 83.7362 41.3326ZM11.9199 6.42717C8.89711 6.42717 6.43758 8.88272 6.43758 11.9007V29.4314C6.43758 32.4498 8.89711 34.9053 11.9199 34.9053H83.7362C86.7594 34.9053 89.219 32.4498 89.219 29.4314V11.9007C89.219 8.88272 86.7594 6.42717 83.7362 6.42717H11.9199Z" fill="white"/>
<path id="Vector_5" d="M77.732 71.6304H17.9246C13.1282 71.6304 9.22622 67.7347 9.22622 62.9461V56.4353C9.22622 51.6467 13.1282 47.751 17.9246 47.751H77.732C82.5284 47.751 86.4304 51.6467 86.4304 56.4353V62.9461C86.4304 67.7347 82.5284 71.6304 77.732 71.6304ZM17.9246 54.1783C16.6781 54.1783 15.6638 55.1909 15.6638 56.4353V62.9461C15.6638 64.1909 16.6781 65.2035 17.9246 65.2035H77.732C78.9785 65.2035 79.9927 64.1909 79.9927 62.9461V56.4353C79.9927 55.1909 78.9785 54.1783 77.732 54.1783H17.9246Z" fill="white"/>
<path id="Vector_6" d="M124.157 15.8195H144.701C148.057 15.8195 150.766 16.762 152.825 18.6474C154.886 20.5328 155.916 23.018 155.916 26.1029V31.5876C155.916 34.8252 154.837 37.4248 152.683 39.3859C150.527 41.348 147.695 42.3283 144.186 42.3283H130.852V55.8108H124.157V15.8195ZM144.071 36.5007C145.634 36.5007 146.884 36.0251 147.819 35.0724C148.753 34.1208 149.221 32.8826 149.221 31.3588V26.2745C149.221 24.8657 148.801 23.7419 147.962 22.9036C147.122 22.0664 145.997 21.6469 144.586 21.6469H130.852V36.5007H144.071Z" fill="white"/>
<path id="Vector_7" d="M186.608 46.0284H170.7L166.981 55.912H160.056L175.621 15.9205H178.654C180.714 15.9205 182.145 16.9299 182.946 18.9486L197.252 55.912H190.271L186.608 46.0284ZM172.589 40.4293H184.72L178.711 24.2045H178.654L172.589 40.4293Z" fill="white"/>
<path id="Vector_8" d="M207.106 31.3215H213.662V55.9632H207.106V31.3215Z" fill="white"/>
<path id="Vector_9" d="M207.106 20.5408H213.662V26.7012H207.106V20.5408Z" fill="white"/>
<path id="Vector_10" d="M235.409 21.5898H222.705V15.8195H254.808V21.5898H242.103V55.8108H235.409V21.5898Z" fill="white"/>
<path id="Vector_11" d="M13.1234 56.7333H3.0965V63.2788H13.1234V56.7333Z" fill="white"/>
<path id="Vector_12" d="M102.208 17.0756H92.1816V23.621H102.208V17.0756Z" fill="white"/>
</g>
</g>
</g>
</g>
</g>
<defs>
<linearGradient id="paint0_linear_0_1" x1="128.5" y1="-390" x2="128.5" y2="462" gradientUnits="userSpaceOnUse">
<stop stop-color="#3A506B"/>
<stop offset="1" stop-color="#3A506B" stop-opacity="0"/>
</linearGradient>
</defs>
</svg>
